<?xml version="1.0" encoding="UTF-8" standalone="no"?> <svg xmlns="http://www.w3.org/2000/svg" viewBox="0 0 32 32"><defs><style>.cls-1{fill:#fff;}.cls-2{fill:#fff;}</style></defs><title>Coffee Shop</title><g id="Coffee_Shop" data-name="Coffee Shop"><path  class="cls-1" d="M22,29H7a3,3,0,0,1-3-3H4a1,1,0,0,1,1-1H24a1,1,0,0,1,1,1h0A3,3,0,0,1,22,29Z"/><path class="cls-2" d="M16,25H12a7,7,0,0,1-7-7V12a2,2,0,0,1,2-2H21a2,2,0,0,1,2,2v6A7,7,0,0,1,16,25Z"/><path fill="#867ffb"  d="M26.071,11H23.816A3,3,0,0,0,21,9H7a3,3,0,0,0-3,3v6a6.767,6.767,0,0,0,3.4,6H5a2,2,0,0,0-2,2,4,4,0,0,0,4,4H22a4,4,0,0,0,4-4,2,2,0,0,0-2-2H20.6a6.99,6.99,0,0,0,2.2-2.039A.977.977,0,0,0,23,22h1.071a5.006,5.006,0,0,0,5-5V14A3,3,0,0,0,26.071,11ZM22,28H7a2,2,0,0,1-2-2H24A2,2,0,0,1,22,28ZM12,24a6.006,6.006,0,0,1-6-6V12a1,1,0,0,1,1-1H21a1,1,0,0,1,1,1v6a6.006,6.006,0,0,1-6,6Zm15.071-7a3,3,0,0,1-3,3h-.349A7.354,7.354,0,0,0,24,18V13h2.071a1,1,0,0,1,1,1Z"/><path  fill="#867ffb" d="M8,7A1,1,0,0,0,9,6,2.9,2.9,0,0,1,9.4,4.447,4.865,4.865,0,0,0,10,2,1,1,0,0,0,8,2a2.9,2.9,0,0,1-.395,1.553A4.865,4.865,0,0,0,7,6,1,1,0,0,0,8,7Z"/><path fill="#867ffb" d="M13.5,7a1,1,0,0,0,1-1A2.9,2.9,0,0,1,14.9,4.447,4.865,4.865,0,0,0,15.5,2a1,1,0,0,0-2,0,2.9,2.9,0,0,1-.395,1.553A4.865,4.865,0,0,0,12.5,6,1,1,0,0,0,13.5,7Z"/><path  fill="#867ffb" d="M19,7a1,1,0,0,0,1-1A2.9,2.9,0,0,1,20.4,4.447,4.865,4.865,0,0,0,21,2a1,1,0,0,0-2,0,2.9,2.9,0,0,1-.395,1.553A4.865,4.865,0,0,0,18,6,1,1,0,0,0,19,7Z"/></g></svg>